PathFileType	4	(X/Y/Z)	C:\Users\Basilio\Documents\Thesis Gigler\squatting_fais\c3dfiles\076\SLS_back_pre4\markers_experimental.trc
DataRate	CameraRate	NumFrames	NumMarkers	Units	OrigDataRate	OrigDataStartFrame	OrigNumFrames
200.000000	200.000000	4	61	mm	200.000000	1587	1814
Frame#	Time	FHD			LBHD			RBHD			C7			T10			CLAV			LSHO			LUUPA			LMUPA			LDUPA			LLEP			LMEP			LRAD			LUL			LRFIN			RSHO			RUPA1			RMUPA			RDUPA			RLEP			RMEP			RRAD			RUL			RUFIN			LASI			RASI			USACR			LSACR			RSACR			LTHI1			LTHI2			LTHI3			LTHI4			LLFC			LMFC			LTIB1			LTIB2			LTIB3			LTIB4			LLMAL			LMMAL			LHEE			LMT1			LMT2			LMT5			RTHI			RTHI2			RTHI3			RTHI4			RLFC			RMFC			RTIB1			RTIB2			RTIB3			RTIB4			RLMAL			RMMAL			RHEE			RMT1			RMT2			RMT5			
		X1	Y1	Z1	X2	Y2	Z2	X3	Y3	Z3	X4	Y4	Z4	X5	Y5	Z5	X6	Y6	Z6	X7	Y7	Z7	X8	Y8	Z8	X9	Y9	Z9	X10	Y10	Z10	X11	Y11	Z11	X12	Y12	Z12	X13	Y13	Z13	X14	Y14	Z14	X15	Y15	Z15	X16	Y16	Z16	X17	Y17	Z17	X18	Y18	Z18	X19	Y19	Z19	X20	Y20	Z20	X21	Y21	Z21	X22	Y22	Z22	X23	Y23	Z23	X24	Y24	Z24	X25	Y25	Z25	X26	Y26	Z26	X27	Y27	Z27	X28	Y28	Z28	X29	Y29	Z29	X30	Y30	Z30	X31	Y31	Z31	X32	Y32	Z32	X33	Y33	Z33	X34	Y34	Z34	X35	Y35	Z35	X36	Y36	Z36	X37	Y37	Z37	X38	Y38	Z38	X39	Y39	Z39	X40	Y40	Z40	X41	Y41	Z41	X42	Y42	Z42	X43	Y43	Z43	X44	Y44	Z44	X45	Y45	Z45	X46	Y46	Z46	X47	Y47	Z47	X48	Y48	Z48	X49	Y49	Z49	X50	Y50	Z50	X51	Y51	Z51	X52	Y52	Z52	X53	Y53	Z53	X54	Y54	Z54	X55	Y55	Z55	X56	Y56	Z56	X57	Y57	Z57	X58	Y58	Z58	X59	Y59	Z59	X60	Y60	Z60	X61	Y61	Z61	

1588	7.935	-201.1799011230469	1649.801025390625	-972.4148559570315	-324.2431030273438	1564.3837890625	-1078.282348632813	-322.9110412597657	1571.083129882813	-926.438659667969	-366.1495361328126	1450.615478515625	-1002.879821777344	-389.8282470703126	1131.575805664063	-1008.676940917969	-231.5792541503907	1373.387817382813	-993.6103515625002	-295.7074890136719	1396.968139648438	-1172.492065429688	-312.0219726562501	1229.953247070313	-1279.834594726563	-280.7419433593751	1193.812622070313	-1264.052856445313	-312.2894897460938	1167.980346679688	-1310.745849609375	-320.5238037109376	1114.531860351563	-1333.994262695313	-368.7565612792969	1080.933837890625	-1270.325073242188	-171.7628021240235	948.8261718750002	-1222.021484375	-169.4910888671875	924.5964965820315	-1282.504272460938	-110.8828659057617	895.2568359375002	-1200.0888671875	-316.6557312011719	1388.832763671875	-829.2454223632815	-387.8833923339845	1209.168334960938	-755.0939331054689	-348.3480529785157	1181.923828125	-740.4815673828126	-393.771697998047	1140.851440429688	-738.8301391601564	-385.893280029297	1072.976806640625	-722.2581176757814	-383.4505004882813	1051.993774414063	-802.007995605469	-220.3112792968751	885.5300903320315	-727.6802368164064	-272.2349243164063	863.584167480469	-691.2143554687501	-181.2044219970703	828.569030761719	-688.7220458984376	-220.4343872070313	944.6111450195315	-1094.173217773438	-234.5842895507813	955.6130981445315	-877.277526855469	-392.2440185546876	1022.950500488281	-999.8963012695315	-397.3955383300782	993.6774902343752	-1026.899536132813	-400.8799133300782	995.2097778320315	-970.6870117187502	-309.7013549804688	790.046325683594	-1151.968017578125	-292.7131958007813	708.3217163085939	-1143.1162109375	-244.2058258056641	706.7505493164064	-1129.859741210938	-328.7787170410157	661.6872558593751	-1128.130493164063	-350.5891723632813	502.6046142578126	-1094.612670898438	-316.1819152832032	500.421112060547	-979.7544555664065	-319.5608215332032	362.0165710449219	-1021.592224121094	-345.1575622558594	306.0730895996094	-1084.862060546875	-315.3578491210938	310.7385864257813	-1049.566528320313	-327.1257629394532	235.6678924560547	-1013.614624023438	-383.3536682128907	105.8252029418946	-1057.172119140625	-355.3541259765626	122.3699798583985	-979.4458618164065	-442.1563415527345	97.1427917480469	-1007.773803710938	-240.0664520263672	53.52648162841798	-994.1714477539065	-235.1683044433594	49.45431137084962	-1032.911499023438	-259.2473754882813	43.12282943725587	-1082.613525390625	-335.8068847656251	711.9437255859376	-804.895690917969	-298.7460632324219	657.6812133789064	-789.4337158203127	-264.2734069824219	660.1633300781251	-790.8889160156252	-321.1852722167969	578.4743041992189	-803.010925292969	-322.7045898437501	518.1776123046876	-805.4770507812502	-266.8245544433594	502.1028442382814	-908.7460937500002	-285.7134704589844	382.5580139160157	-804.8828125000002	-362.8788146972657	307.1584777832032	-791.5179443359377	-316.2736511230469	301.9007568359376	-790.545104980469	-297.3399047851563	253.5401153564454	-816.7340087890627	-366.5349731445313	113.9060897827149	-789.3735351562502	-333.2743225097657	125.4341125488282	-867.9316406250002	-420.1372680664064	98.32842254638675	-835.4294433593752	-221.1263122558594	52.10534286499025	-847.790466308594	-216.7159729003907	51.95342254638673	-801.7596435546877	-248.9873352050782	36.3681983947754	-750.0623168945314	
1589	7.94	-201.1284179687501	1649.865234375	-971.627136230469	-324.1088562011719	1564.331665039063	-1077.473022460938	-322.7525024414063	1570.973999023438	-925.6641235351565	-365.9493408203126	1450.652709960938	-1002.22314453125	-389.5509643554689	1131.649047851563	-1007.912109375	-231.4322052001954	1373.551635742188	-993.0114746093752	-295.5662841796876	1397.211059570313	-1171.684936523438	-312.2932739257813	1231.012817382813	-1279.84033203125	-281.6741027832032	1194.663818359375	-1264.537963867188	-312.9055786132813	1169.212158203125	-1311.1240234375	-321.5425415039063	1115.880126953125	-1334.885620117188	-370.4880676269532	1082.17822265625	-1271.486328125	-174.213134765625	949.7749633789065	-1221.88525390625	-170.9695434570313	925.720886230469	-1282.192504882813	-114.0799942016602	896.097595214844	-1199.0107421875	-316.3371887207032	1388.965209960938	-828.6810302734377	-387.9181518554689	1210.249389648438	-753.9001464843751	-348.8613281250001	1182.692016601563	-739.2734375000001	-394.3569335937501	1142.1240234375	-737.0261230468751	-386.7491149902345	1074.0322265625	-720.2365722656251	-385.1045837402345	1052.705200195313	-800.0155029296877	-219.8966369628907	887.8359375000002	-727.5555419921876	-271.0356140136719	865.4590454101565	-690.0793457031251	-179.5137329101563	831.3574218750002	-688.9434204101564	-220.1536407470704	944.5493164062502	-1093.400146484375	-234.4727630615235	955.5643310546877	-876.5534667968752	-391.9303588867189	1023.071411132813	-999.2878417968752	-398.3760986328126	993.8073730468752	-1026.098754882813	-401.2850341796876	994.9351806640627	-970.0787353515627	-309.3085632324219	790.0468750000002	-1151.470947265625	-292.3825683593751	708.6352539062501	-1142.523559570313	-243.6251220703126	706.7725830078126	-1129.218627929688	-328.7156372070313	661.7940673828126	-1127.61328125	-350.3453369140626	502.5681457519532	-1094.186889648438	-316.1585693359376	500.2948608398439	-979.308288574219	-319.4629516601563	362.1054077148438	-1021.228271484375	-345.1825256347657	306.0996093750001	-1084.501953125	-315.2798461914063	310.7312316894532	-1049.348754882813	-327.0578613281251	235.7093658447266	-1013.436279296875	-383.3601989746094	105.8366928100586	-1057.154174804688	-355.3749694824219	122.3362731933594	-979.4156494140627	-442.1800231933595	97.18166351318362	-1007.778503417969	-240.1225738525391	53.52193069458009	-994.1675415039065	-235.1496276855469	49.43753051757814	-1032.868530273438	-259.9641723632813	43.47687911987305	-1082.894897460938	-336.5646362304688	711.9706420898439	-804.7385864257815	-300.0203552246094	657.3986816406251	-789.5357055664065	-265.3302307128907	659.8231201171876	-790.5706176757815	-322.5313720703126	578.4104614257814	-803.2459716796877	-324.3653564453126	518.1273803710939	-805.8138427734377	-268.4442749023438	502.093963623047	-909.166442871094	-287.1152343750001	382.6296081542969	-805.290466308594	-363.9143371582032	307.0219726562501	-791.9937133789065	-317.3261413574219	301.8199157714844	-790.8963012695315	-298.0353698730469	253.5588836669922	-816.8601074218752	-366.5913391113282	113.8388671875	-789.441345214844	-333.3145751953126	125.2059478759766	-868.1121826171877	-420.2042236328126	98.18288421630862	-835.5515747070315	-221.1664581298829	52.10709381103517	-847.816833496094	-216.7529602050782	51.9984703063965	-801.708923339844	-248.9906768798829	36.35222625732423	-750.0419311523439	
1590	7.945	-201.2167358398438	1650.15087890625	-970.8264770507815	-323.5920104980469	1564.91455078125	-1076.823486328125	-322.6154174804688	1570.941040039063	-924.9007568359377	-365.7896423339844	1450.673950195313	-1001.501647949219	-389.4029541015626	1131.617797851563	-1007.214660644531	-231.1712188720704	1373.66064453125	-992.4647216796877	-295.4664611816407	1397.404418945313	-1170.95556640625	-312.3971862792969	1231.948486328125	-1279.7705078125	-282.2846374511719	1195.2705078125	-1264.661010742188	-313.6199340820313	1170.4658203125	-1311.536499023438	-322.4307861328126	1117.363525390625	-1335.473266601563	-371.8489074707032	1083.802001953125	-1272.579833984375	-177.2640991210938	950.524841308594	-1221.831665039063	-172.6408996582032	926.664489746094	-1281.830932617188	-116.8569107055664	897.0330200195315	-1198.3076171875	-315.9785766601563	1389.059814453125	-828.0410766601565	-388.0887756347657	1211.291870117188	-752.5708618164064	-349.3111877441407	1183.512084960938	-737.8875122070314	-395.1700439453126	1143.075927734375	-735.2561035156251	-387.7679138183595	1075.0830078125	-717.9197387695314	-386.5813598632814	1053.360961914063	-797.8347167968752	-219.2724761962891	890.247497558594	-727.0202026367189	-269.6527404785157	867.571960449219	-688.9508056640626	-177.9011535644532	833.9666137695315	-689.4942626953126	-219.8360137939454	944.6253662109377	-1092.651123046875	-234.1502838134766	955.5311279296877	-875.5076293945315	-391.5377502441407	1023.314758300781	-998.685241699219	-397.1895446777345	993.8203735351565	-1025.629638671875	-400.4614562988282	995.2794189453127	-969.5529785156252	-308.9253540039063	790.142028808594	-1151.020629882813	-292.2416076660157	708.4920654296876	-1142.24072265625	-243.4367065429688	706.8099975585939	-1128.687866210938	-328.5422058105469	661.9284667968751	-1127.209594726563	-350.2623901367188	502.6652832031251	-1093.695068359375	-315.9921569824219	500.2635803222657	-978.9175415039065	-319.4651489257813	362.1760253906251	-1020.917236328125	-345.1526794433594	306.0985107421876	-1084.1962890625	-315.1880798339844	310.7589416503907	-1049.15087890625	-327.0307922363282	235.6881561279297	-1013.2880859375	-383.4515686035157	105.8938751220703	-1057.192993164063	-355.3442077636719	122.3228302001953	-979.3725585937502	-442.1507568359376	97.14533996582034	-1007.784362792969	-240.1254577636719	53.51402282714845	-994.1649169921877	-235.1229248046876	49.42929458618165	-1032.874755859375	-260.0104675292969	43.50841140747071	-1082.868286132813	-337.4387207031251	711.8645629882814	-804.5229492187502	-301.0282897949219	657.1337890625001	-789.8087158203127	-266.2432250976563	659.6233520507814	-790.644958496094	-323.8641357421876	578.1924438476564	-803.528259277344	-326.0576171875001	518.0313110351564	-806.289733886719	-269.7415161132813	502.0782775878907	-909.5374755859377	-288.3222656250001	382.7498474121094	-805.6372680664065	-364.9466552734376	306.7984313964844	-792.480651855469	-318.4194946289063	301.7944641113282	-791.5223388671877	-298.8094482421876	253.5886230468751	-817.1038208007815	-366.5794982910157	113.7709655761719	-789.538513183594	-333.4897460937501	125.0185165405274	-868.2536621093752	-420.1880493164064	98.06335449218753	-835.6650390625002	-221.1522674560547	52.06970977783205	-847.8003540039065	-216.8289794921876	51.85744476318361	-801.8169555664065	-248.9561462402344	36.36166000366212	-750.0108642578126	
1591	7.95	-200.9209289550782	1649.910766601563	-969.974060058594	-323.5479125976563	1565.209838867188	-1076.172729492188	-322.3901367187501	1570.85986328125	-924.1829223632815	-365.4576416015626	1450.66650390625	-1000.745544433594	-389.2502746582032	1131.705810546875	-1006.456420898438	-230.9289245605469	1373.617919921875	-991.9255371093752	-295.3084106445313	1397.5966796875	-1170.18115234375	-313.1489562988282	1232.955322265625	-1279.905883789063	-282.0683593750001	1196.579467773438	-1265.417846679688	-314.1548461914063	1171.949584960938	-1312.099609375	-322.5375061035157	1118.94677734375	-1335.713256835938	-373.5913391113282	1084.97509765625	-1273.679565429688	-179.4997253417969	951.4011840820315	-1221.512817382813	-174.8928527832032	927.8500976562502	-1281.8291015625	-119.8750915527344	897.6105957031252	-1197.185546875	-315.5940246582032	1389.189331054688	-827.3857421875002	-388.6312866210939	1212.256958007813	-751.2724609375001	-349.7022399902344	1184.492431640625	-736.2597656250001	-395.976287841797	1144.37939453125	-733.3585205078126	-388.7323608398439	1076.31494140625	-715.5545043945314	-387.8528747558595	1054.3232421875	-795.4085693359377	-218.9171905517579	892.7656860351565	-726.7136230468751	-268.3198547363282	869.7285156250002	-687.6699829101564	-176.4100799560547	836.8579711914065	-689.6783447265626	-219.3802642822266	945.1276855468752	-1091.746215820313	-234.0884552001954	955.448913574219	-874.8278808593752	-391.280731201172	1023.392028808594	-998.103454589844	-396.9275512695314	993.9189453125002	-1024.9970703125	-400.3001403808595	995.4285888671877	-968.8710937500002	-308.4984741210938	790.2651977539065	-1150.393310546875	-291.7641601562501	708.6191406250001	-1141.44873046875	-243.190902709961	706.8475952148439	-1128.057495117188	-328.2160644531251	661.9533691406251	-1126.662719726563	-350.1327819824219	502.6790771484376	-1093.287231445313	-315.8372497558594	500.2846984863282	-978.4892578125002	-319.3765563964844	362.1733093261719	-1020.556335449219	-345.0455017089844	306.1299743652344	-1083.944458007813	-315.0831909179688	310.8170166015626	-1048.89697265625	-327.0189208984376	235.7292022705079	-1013.071594238281	-383.4959716796876	105.8993911743164	-1057.117919921875	-355.3355712890626	122.3269119262696	-979.3115844726565	-442.1739807128907	97.12451934814456	-1007.775451660156	-240.1247253417969	53.51979064941408	-994.1623535156252	-235.142318725586	49.49563598632814	-1032.869995117188	-259.3291625976563	43.23796463012696	-1082.643432617188	-338.2079162597657	711.9954833984376	-804.3702392578127	-301.9139099121094	657.0648193359376	-789.7095947265627	-267.3636474609376	659.2879028320314	-790.8171997070315	-325.0936584472657	578.2030639648439	-803.9512329101565	-327.4808044433594	518.0755004882814	-806.6430664062502	-271.3282470703126	502.0718994140626	-909.8591308593752	-289.7250671386719	382.7711181640626	-806.0366821289065	-366.1843872070313	306.5114440917969	-793.1074829101565	-319.4295959472657	301.8375244140626	-791.7401123046877	-299.5798034667969	253.5816192626954	-817.3120727539065	-366.6006469726563	113.7515487670899	-789.6235351562502	-333.5291748046876	124.8387603759766	-868.418151855469	-420.1966247558595	98.00421142578128	-835.7681274414065	-221.1573333740235	52.03859329223634	-847.8151855468752	-216.8152465820313	51.87985992431642	-801.8230590820315	-248.9841308593751	36.3447608947754	-750.0115966796876	
